<svg width="44" height="43" viewBox="0 0 44 43" fill="none" xmlns="http://www.w3.org/2000/svg">
<mask id="mask0_3_14" style="mask-type:luminance" maskUnits="userSpaceOnUse" x="0" y="0" width="44" height="43">
<path d="M0.111542 0L43.1349 0.114341L43.0234 42.0901L-1.48033e-05 41.9757L0.111542 0Z" fill="white"/>
<path d="M31.843 27.459C33.5873 21.1736 29.514 14.6662 22.7987 12.8918C15.2154 10.8859 4.43091 16.0138 6.8094 22.6346C7.59787 24.8243 9.12549 25.3401 12.0096 25.3882L12.19 25.3919C13.7139 25.4137 14.1423 25.5117 14.2708 25.7155C14.48 26.0518 14.4819 26.5862 14.2414 28.0563C14.127 28.7503 14.09 28.9923 14.046 29.3716C13.7767 31.6812 14.1724 33.484 15.7185 35.1187C20.5501 40.2219 29.8732 34.5541 31.843 27.459ZM9.93311 21.5677C8.73565 18.2355 16.4649 14.5621 21.9333 16.0071C26.9222 17.3264 29.903 22.0889 28.6482 26.6142C27.2481 31.6605 20.7112 35.6341 18.1502 32.9279C17.3582 32.0927 17.1636 31.201 17.3346 29.7372C17.3702 29.424 17.4039 29.2078 17.5098 28.5655C17.8782 26.3111 17.876 25.2811 17.095 24.0342C16.1162 22.4704 14.9486 22.2042 12.2399 22.1631L12.0645 22.1594C10.4694 22.1342 10.0908 22.0056 9.93146 21.5661" fill="black"/>
<path d="M14.9485 21.0274C14.3999 21.026 13.8743 20.812 13.4874 20.4325C13.1005 20.053 12.884 19.5391 12.8854 19.0039C12.8868 18.4686 13.1061 17.9559 13.495 17.5785C13.8839 17.2011 14.4106 16.9898 14.9592 16.9913C15.5078 16.9928 16.0333 17.2068 16.4202 17.5863C16.8071 17.9658 17.0237 18.4796 17.0223 19.0149C17.0208 19.5501 16.8016 20.0628 16.4126 20.4402C16.0237 20.8177 15.4971 21.0289 14.9485 21.0274ZM21.1538 21.0439C20.6052 21.0425 20.0796 20.8284 19.6927 20.449C19.3058 20.0695 19.0893 19.5556 19.0907 19.0204C19.0921 18.4851 19.3114 17.9724 19.7003 17.595C20.0892 17.2176 20.6159 17.0063 21.1645 17.0078C21.7131 17.0093 22.2386 17.2233 22.6255 17.6028C23.0124 17.9822 23.229 18.4961 23.2276 19.0314C23.2261 19.5666 23.0069 20.0793 22.6179 20.4567C22.229 20.8342 21.7024 21.0454 21.1538 21.0439ZM25.2778 25.8983C24.7292 25.8968 24.2036 25.6828 23.8167 25.3033C23.4298 24.9238 23.2133 24.4099 23.2147 23.8747C23.2161 23.3395 23.4354 22.8268 23.8243 22.4493C24.2132 22.0719 24.7399 21.8607 25.2885 21.8621C25.8371 21.8636 26.3626 22.0776 26.7495 22.4571C27.1364 22.8366 27.353 23.3505 27.3516 23.8857C27.3501 24.4209 27.1308 24.9336 26.7419 25.3111C26.353 25.6885 25.8263 25.8997 25.2778 25.8983ZM22.7806 31.5422C22.232 31.5408 21.7065 31.3268 21.3196 30.9473C20.9327 30.5678 20.7161 30.0539 20.7176 29.5187C20.719 28.9835 20.9383 28.4707 21.3272 28.0933C21.7161 27.7159 22.2428 27.5047 22.7914 27.5061C23.3399 27.5076 23.8655 27.7216 24.2524 28.1011C24.6393 28.4806 24.8558 28.9945 24.8544 29.5297C24.853 30.0649 24.6337 30.5776 24.2448 30.9551C23.8559 31.3325 23.3292 31.5437 22.7806 31.5422ZM28.8261 10.7398C29.0226 10.6378 29.2382 10.5755 29.4599 10.5566C29.6817 10.5378 29.905 10.5628 30.1167 10.6301C30.3283 10.6974 30.5238 10.8057 30.6916 10.9485C30.8593 11.0913 30.9958 11.2656 31.0929 11.4611L37.8297 25.0404C37.9422 25.2845 37.9551 25.5612 37.866 25.8142C37.7768 26.0672 37.5922 26.2776 37.3497 26.4026C37.1073 26.5276 36.8251 26.5578 36.5606 26.487C36.2961 26.4163 36.0691 26.25 35.9258 26.0218L28.1699 12.9725C28.0589 12.7847 27.9877 12.5769 27.9608 12.3617C27.9338 12.1465 27.9516 11.9282 28.013 11.7198C28.0744 11.5115 28.1782 11.3173 28.3182 11.1489C28.4582 10.9806 28.6298 10.8414 28.8261 10.7398Z" fill="black"/>
<path d="M25.7952 10.5364C26.5954 12.0158 27.9496 12.4327 29.2619 11.7565C30.5726 11.0819 30.9849 9.7543 30.183 8.27493C29.2658 6.58054 27.299 5.04157 25.99 5.71455C24.6809 6.38753 24.8763 8.84204 25.7952 10.5364ZM27.2567 9.78152C26.9665 9.20623 26.7886 8.58327 26.732 7.94448C26.7085 7.67732 26.7193 7.40836 26.7639 7.14379L26.7937 7.1584C26.8763 7.19737 27.1325 7.31429 27.4595 7.57025C27.9581 7.96066 28.4531 8.53511 28.7198 9.02823C29.0969 9.72345 28.9884 10.0719 28.488 10.3289C27.9909 10.5859 27.6338 10.4751 27.2567 9.78152Z" fill="black"/>
</mask>
<g mask="url(#mask0_3_14)">
<path d="M21.5117 42.0329C33.3923 42.0645 43.0483 32.6935 43.0792 21.1022C43.11 9.51092 33.5038 0.0887448 21.6232 0.0571705C9.74266 0.0255961 0.086569 9.39658 0.0557635 20.9879C0.024958 32.5791 9.6311 42.0013 21.5117 42.0329Z" fill="white"/>
</g>
</svg>
